<?xml version="1.0" encoding="UTF-8" standalone="no"?>
<svg
   xmlns:dc="http://purl.org/dc/elements/1.1/"
   xmlns:cc="http://creativecommons.org/ns#"
   xmlns:rdf="http://www.w3.org/1999/02/22-rdf-syntax-ns#"
   xmlns:svg="http://www.w3.org/2000/svg"
   xmlns="http://www.w3.org/2000/svg"
   viewBox="0 0 247.06667 63.880001"
   height="63.880001"
   width="247.06667"
   xml:space="preserve"
   id="svg2"
   version="1.1"><metadata
     id="metadata8"><rdf:RDF><cc:Work
         rdf:about=""><dc:format>image/svg+xml</dc:format><dc:type
           rdf:resource="http://purl.org/dc/dcmitype/StillImage" /></cc:Work></rdf:RDF></metadata><defs
     id="defs6"><clipPath
       id="clipPath22"
       clipPathUnits="userSpaceOnUse"><path
         style="clip-rule:evenodd"
         id="path20"
         d="M 185.449,68.2461 C 185.02,30.707 214.68,3.77344 247.758,2.62109 c 37.226,-1.30078 67.187,28.52341 67.097,64.65621 0,35.1097 -27.792,64.2387 -63.82,64.6997 -0.281,0 -0.57,0 -0.859,0 -36.27,0 -64.321,-28.809 -64.727,-63.7309" /></clipPath><clipPath
       id="clipPath34"
       clipPathUnits="userSpaceOnUse"><path
         style="clip-rule:evenodd"
         id="path32"
         d="m 185.449,241.352 c -0.269,-36.067 28.305,-64.856 63.844,-65.254 37.102,-0.43 65.492,29.304 65.562,64.632 0.071,36.586 -29.996,65.231 -64.535,64.75 -0.41,0.012 -0.808,0.012 -1.218,0.012 -33.336,0 -63.375,-27.289 -63.653,-64.14" /></clipPath><clipPath
       id="clipPath46"
       clipPathUnits="userSpaceOnUse"><path
         style="clip-rule:evenodd"
         id="path44"
         d="M 0.0117188,67.8242 C -0.238281,31.5156 28.8789,3.30469 63.3203,2.60156 100.582,1.83984 130.023,32.3008 129.398,67.4258 c 0.508,33.5232 -26.742,64.1482 -63.9058,64.5582 -0.2422,0 -0.4922,0 -0.7422,0 -36.4062,0 -64.511719,-29.351 -64.7382812,-64.1598" /></clipPath><clipPath
       id="clipPath58"
       clipPathUnits="userSpaceOnUse"><path
         id="path56"
         d="M 0,0 V 479 H 1853 V 0 Z" /></clipPath><clipPath
       id="clipPath64"
       clipPathUnits="userSpaceOnUse"><path
         style="clip-rule:evenodd"
         id="path62"
         d="m 185.453,415.789 c -0.765,-37.191 29.082,-66.07 64.344,-66.074 36.058,-0.086 64.937,28.558 65.047,64.555 0.105,34.656 -27.211,64.722 -64.489,64.851 -0.082,0 -0.156,0 -0.234,0 -36.383,-0.008 -63.953,-28.672 -64.668,-63.332" /></clipPath><clipPath
       id="clipPath76"
       clipPathUnits="userSpaceOnUse"><path
         style="clip-rule:evenodd"
         id="path74"
         d="M 0.00390625,241.777 C 0.00390625,241.652 0,241.531 0,241.41 v -1.012 c 0.269531,-35.394 28.9102,-64.722 65.6484,-64.242 36.8286,0.469 64.3126,30.86 63.7496,64.703 0.485,35.489 -29.027,64.09 -63.4996,64.68 -0.3671,0.008 -0.7343,0.008 -1.0976,0.008 -34.6172,0 -64.316425,-27.902 -64.79689375,-63.77" /></clipPath><clipPath
       id="clipPath88"
       clipPathUnits="userSpaceOnUse"><path
         id="path86"
         d="M 0,0 V 479 H 1853 V 0 Z" /></clipPath><clipPath
       id="clipPath94"
       clipPathUnits="userSpaceOnUse"><path
         style="clip-rule:evenodd"
         id="path92"
         d="M 64.75,479.129 C 27.6016,479.109 -0.484375,448.84 0.0625,413.391 0.609375,378.09 29.3945,349.641 64.625,349.73 c 36.082,-0.171 63.758,29.028 64.809,62.579 1.117,35.679 -27.094,66.824 -64.641,66.82 -0.0078,0 -0.0274,0 -0.043,0" /></clipPath><clipPath
       id="clipPath106"
       clipPathUnits="userSpaceOnUse"><path
         style="clip-rule:evenodd"
         id="path104"
         d="m 370.84,240.859 c -0.004,-35.726 28.562,-64.722 64.621,-64.769 35.5,-0.051 64.707,28.125 64.777,64.598 0.09,37.796 -30.847,65.273 -64.468,64.785 -0.418,0.007 -0.832,0.015 -1.25,0.015 -34.059,-0.008 -63.68,-28.222 -63.68,-64.629" /></clipPath><clipPath
       id="clipPath118"
       clipPathUnits="userSpaceOnUse"><path
         id="path116"
         d="M 0,0 V 479 H 1853 V 0 Z" /></clipPath><clipPath
       id="clipPath124"
       clipPathUnits="userSpaceOnUse"><path
         style="clip-rule:evenodd"
         id="path122"
         d="m 435.563,479.121 c -37.09,-0.012 -64.809,-29.746 -64.735,-64.883 0.094,-36.179 29.531,-64.777 64.824,-64.519 34.43,-0.149 64.602,27.402 64.586,64.742 -0.011,36.047 -28.492,64.66 -64.652,64.66 -0.004,0 -0.016,0 -0.023,0" /></clipPath><clipPath
       id="clipPath136"
       clipPathUnits="userSpaceOnUse"><path
         style="clip-rule:evenodd"
         id="path134"
         d="m 370.824,67.3789 c 0.067,-35.8437 28.379,-63.58593 62.395,-64.75781 36.277,-1.25 67.054,27.20701 67.015,64.71871 -0.039,36.2262 -28.57,64.0702 -63.586,64.6372 -0.363,0 -0.734,0.007 -1.101,0.007 -36.484,0 -64.649,-29.336 -64.723,-64.6051" /></clipPath><clipPath
       id="clipPath148"
       clipPathUnits="userSpaceOnUse"><path
         id="path146"
         d="M 0,0 V 479 H 1853 V 0 Z" /></clipPath><clipPath
       id="clipPath154"
       clipPathUnits="userSpaceOnUse"><path
         style="clip-rule:evenodd"
         id="path152"
         d="m 1002.89,418.172 c 0,-33.652 27.29,-60.938 60.95,-60.938 33.65,0 60.94,27.286 60.94,60.938 0,33.656 -27.29,60.949 -60.94,60.949 -33.66,0 -60.95,-27.293 -60.95,-60.949" /></clipPath><clipPath
       id="clipPath166"
       clipPathUnits="userSpaceOnUse"><path
         style="clip-rule:evenodd"
         id="path164"
         d="m 1266.94,304.656 c -4.92,19.977 -18.64,33.442 -37.78,37.035 -22.59,4.231 -66.43,-0.015 -66.43,-0.015 l -3.56,-0.442 c -0.94,-0.101 -1.76,-0.742 -1.53,-1.597 5.65,-21.996 6.96,-68.813 6.96,-113.082 0,0 -0.04,-130.1839 -0.01,-177.1487 l -0.01,-13.0665 c -0.01,-1.3945 0.04,-2.789 0.11,-4.1796 0.66,-12.1485 4.81,-23.51567 15.8,-26.54301 0.13,-0.02735 0.26,-0.04688 0.4,-0.04688 l 61.32,0.04688 h 37.87 1.43 c 1,0 1.66,1.02734 1.29,1.97265 -1.75,4.36716 -2.57,10.65626 -2.72,17.92186 v 7.3828 c 0.03,4.9883 0.02,10.6328 0,15.7422 l 0.01,147.0583 c 0,9.2 1.37,18.235 3.48,23 l 0.1,0.227 0.08,0.23 c 2.87,8.008 14.63,34.157 45.86,34.157 30.17,0 45.47,-21.883 45.47,-65.036 0,0 -0.08,-114.9996 -0.12,-145.0269 -0.01,-3.9063 -0.02,-6.3789 -0.02,-6.9648 l 0.14,-4.5586 c 0.74,-11.9727 4.92,-23.09379 15.77,-26.07426 0.13,-0.03906 0.27,-0.0586 0.41,-0.0586 h 99.29 1.42 c 1,0 1.65,1.01563 1.27,1.95313 -1.68,4.19923 -2.49,10.19533 -2.69,17.12893 v 0.0586 l 0.01,176.3595 c 0,92.75 -46.56,148.133 -124.53,148.133 -45.4,0 -79.5,-21.489 -99.09,-44.567" /></clipPath><clipPath
       id="clipPath178"
       clipPathUnits="userSpaceOnUse"><path
         style="clip-rule:evenodd"
         id="path176"
         d="m 1006.19,336.715 c 0,0 -0.07,-263.4416 -0.12,-293.4689 0,-3.9063 -0.01,-6.3789 -0.02,-6.9648 l 0.14,-4.5586 c 0.74,-11.9727 4.92,-23.09379 15.77,-26.07426 0.14,-0.03906 0.28,-0.0586 0.4,-0.0586 h 99.31 1.42 c 1,0 1.66,1.01563 1.28,1.95313 -1.68,4.19923 -2.5,10.19533 -2.7,17.12893 v 0.0586 311.9845 z" /></clipPath><clipPath
       id="clipPath190"
       clipPathUnits="userSpaceOnUse"><path
         id="path188"
         d="M 0,0 V 479 H 1853 V 0 Z" /></clipPath><clipPath
       id="clipPath196"
       clipPathUnits="userSpaceOnUse"><path
         style="clip-rule:evenodd"
         id="path194"
         d="m 1611.56,334.895 c -20.93,-9.774 -39.29,-22.883 -54.59,-38.95 -15.29,-16.078 -27.31,-34.957 -35.74,-56.117 -3.79,-9.492 -6.19,-17.219 -8.27,-26.621 -0.06,-0.203 -0.13,-0.488 -0.2,-0.801 l -0.02,-0.105 c -1.14,-3.988 -7.34,-28.391 -1.71,-67.754 l -0.26,-0.102 1.54,-7.312 c 2.33,-11.035 5.74,-21.699 10.14,-31.719 9.2,-20.957 21.92,-39.5312 37.77,-55.1952 15.88,-15.6954 34.47,-28.1055 55.24,-36.9141 20.78,-8.82814 43.26,-13.30079375 66.81,-13.30079375 32.42,0 62.15,8.75781375 88.37,26.05469375 1.75,1.1406 3.47,2.332 5.12,3.5156 7.45,5.1055 14.7,11.0156 21.53,17.5391 5.71,5.457 11.18,11.3555 16.24,17.5469 10.11,12.3945 18.96,26.7695 26.28,42.7458 l 5.88,12.86 -51.5,0.019 c -8.29,-0.008 -33.3,-0.019 -37.12,-0.019 -16.3,0 -22.6,-4.668 -28.59,-10.301 l -1.01,-0.957 c -0.2,-0.215 -0.48,-0.481 -0.75,-0.762 l -0.57,-0.558 c -4.27,-4.305 -6.34,-5.985 -11.68,-9.4614 -7.91,-5.168 -18.75,-7.7852 -32.2,-7.7852 -17.56,0 -33.03,4.9609 -46.01,14.7466 -11.36,8.554 -18.88,20.429 -22.41,35.343 l 238.22,0.039 0.57,8.477 c 0.31,4.668 0.39,9.316 0.4,13.906 v 1.016 c -0.01,2.16 -0.02,4.304 -0.04,6.426 -0.02,2.277 -0.04,4.539 -0.04,6.796 0,13.817 -2.34,28.524 -2.44,29.141 l -0.03,0.195 c -2.16,11.719 -5.45,23.203 -9.79,34.145 -8.59,21.699 -20.71,40.875 -36.03,57.008 -15.31,16.082 -33.82,28.922 -55,38.14 -21.21,9.223 -44.47,13.899 -69.13,13.899 -24.73,0 -47.93,-4.989 -68.98,-14.824 m 7.91,-110.801 c 2.6,5.719 6.59,11.301 11.87,16.582 5.27,5.269 12.09,9.738 20.26,13.273 8.1,3.531 18.03,5.317 29.51,5.317 11.47,0 21.4,-1.793 29.53,-5.321 8.17,-3.547 14.98,-8.004 20.23,-13.254 5.28,-5.293 9.28,-10.875 11.87,-16.597 1.52,-3.309 2.77,-6.383 3.77,-9.188 H 1615.7 c 1,2.805 2.27,5.879 3.77,9.188" /></clipPath><clipPath
       id="clipPath208"
       clipPathUnits="userSpaceOnUse"><path
         style="clip-rule:evenodd"
         id="path206"
         d="M 848.176,476.945 V 224.027 L 686.539,445.125 c -14.613,20 -37.902,31.82 -62.676,31.82 H 555.629 V 5.58984 h 115.25 V 268.656 L 841.992,37.0938 C 856.637,17.2773 879.805,5.58984 904.438,5.58984 H 963.43 V 476.945 Z" /></clipPath></defs><g
     transform="matrix(1.3333333,0,0,-1.3333333,0,63.88)"
     id="g10"><g
       transform="scale(0.1)"
       id="g12"><path
         id="path14"
         style="fill:#53a6ec;fill-opacity:1;fill-rule:evenodd;stroke:none"
         d="M 185.449,68.2461 C 185.02,30.707 214.68,3.77344 247.758,2.62109 c 37.226,-1.30078 67.187,28.52341 67.097,64.65621 0,35.1097 -27.792,64.2387 -63.82,64.6997 -0.281,0 -0.57,0 -0.859,0 -36.27,0 -64.321,-28.809 -64.727,-63.7309" /><g
         id="g16"><g
           clip-path="url(#clipPath22)"
           id="g18"><path
             id="path24"
             style="fill:#53a6ec;fill-opacity:1;fill-rule:nonzero;stroke:none"
             d="M 125.293,0 H 375.012 V 192.133 H 125.293 Z" /></g></g><path
         id="path26"
         style="fill:#53a6ec;fill-opacity:1;fill-rule:evenodd;stroke:none"
         d="m 185.449,241.352 c -0.269,-36.067 28.305,-64.856 63.844,-65.254 37.102,-0.43 65.492,29.304 65.562,64.632 0.071,36.586 -29.996,65.231 -64.535,64.75 -0.41,0.012 -0.808,0.012 -1.218,0.012 -33.336,0 -63.375,-27.289 -63.653,-64.14" /><g
         id="g28"><g
           clip-path="url(#clipPath34)"
           id="g30"><path
             id="path36"
             style="fill:#53a6ec;fill-opacity:1;fill-rule:nonzero;stroke:none"
             d="M 125.293,115.93 H 375.012 V 365.649 H 125.293 Z" /></g></g><path
         id="path38"
         style="fill:#53a6ec;fill-opacity:1;fill-rule:evenodd;stroke:none"
         d="M 0.0117188,67.8242 C -0.238281,31.5156 28.8789,3.30469 63.3203,2.60156 100.582,1.83984 130.023,32.3008 129.398,67.4258 c 0.508,33.5232 -26.742,64.1482 -63.9058,64.5582 -0.2422,0 -0.4922,0 -0.7422,0 -36.4062,0 -64.511719,-29.351 -64.7382812,-64.1598" /><g
         id="g40"><g
           clip-path="url(#clipPath46)"
           id="g42"><path
             id="path48"
             style="fill:#53a6ec;fill-opacity:1;fill-rule:nonzero;stroke:none"
             d="M 0,0 H 189.566 V 192.141 H 0 Z" /></g></g><path
         id="path50"
         style="fill:#53a6ec;fill-opacity:1;fill-rule:evenodd;stroke:none"
         d="m 185.453,415.789 c -0.765,-37.191 29.082,-66.07 64.344,-66.074 36.058,-0.086 64.937,28.558 65.047,64.555 0.105,34.656 -27.211,64.722 -64.489,64.851 -0.082,0 -0.156,0 -0.234,0 -36.383,-0.008 -63.953,-28.672 -64.668,-63.332" /><g
         id="g52"><g
           clip-path="url(#clipPath58)"
           id="g54"><g
             clip-path="url(#clipPath64)"
             id="g60"><path
               id="path66"
               style="fill:#53a6ec;fill-opacity:1;fill-rule:nonzero;stroke:none"
               d="M 125.289,289.559 H 374.996 V 539.27 H 125.289 Z" /></g></g></g><path
         id="path68"
         style="fill:#53a6ec;fill-opacity:1;fill-rule:evenodd;stroke:none"
         d="M 0.00390625,241.777 C 0.00390625,241.652 0,241.531 0,241.41 v -1.012 c 0.269531,-35.394 28.9102,-64.722 65.6484,-64.242 36.8286,0.469 64.3126,30.86 63.7496,64.703 0.485,35.489 -29.027,64.09 -63.4996,64.68 -0.3671,0.008 -0.7343,0.008 -1.0976,0.008 -34.6172,0 -64.316425,-27.902 -64.79689375,-63.77" /><g
         id="g70"><g
           clip-path="url(#clipPath76)"
           id="g72"><path
             id="path78"
             style="fill:#53a6ec;fill-opacity:1;fill-rule:nonzero;stroke:none"
             d="M 0,115.988 H 189.566 V 365.703 H 0 Z" /></g></g><path
         id="path80"
         style="fill:#53a6ec;fill-opacity:1;fill-rule:evenodd;stroke:none"
         d="M 64.75,479.129 C 27.6016,479.109 -0.484375,448.84 0.0625,413.391 0.609375,378.09 29.3945,349.641 64.625,349.73 c 36.082,-0.171 63.758,29.028 64.809,62.579 1.117,35.679 -27.094,66.824 -64.641,66.82 -0.0078,0 -0.0274,0 -0.043,0" /><g
         id="g82"><g
           clip-path="url(#clipPath88)"
           id="g84"><g
             clip-path="url(#clipPath94)"
             id="g90"><path
               id="path96"
               style="fill:#53a6ec;fill-opacity:1;fill-rule:nonzero;stroke:none"
               d="M 0,289.574 H 189.617 V 539.281 H 0 Z" /></g></g></g><path
         id="path98"
         style="fill:#53a6ec;fill-opacity:1;fill-rule:evenodd;stroke:none"
         d="m 370.84,240.859 c -0.004,-35.726 28.562,-64.722 64.621,-64.769 35.5,-0.051 64.707,28.125 64.777,64.598 0.09,37.796 -30.847,65.273 -64.468,64.785 -0.418,0.007 -0.832,0.015 -1.25,0.015 -34.059,-0.008 -63.68,-28.222 -63.68,-64.629" /><g
         id="g100"><g
           clip-path="url(#clipPath106)"
           id="g102"><path
             id="path108"
             style="fill:#53a6ec;fill-opacity:1;fill-rule:nonzero;stroke:none"
             d="M 310.688,115.93 H 560.395 V 365.637 H 310.688 Z" /></g></g><path
         id="path110"
         style="fill:#53a6ec;fill-opacity:1;fill-rule:evenodd;stroke:none"
         d="m 435.563,479.121 c -37.09,-0.012 -64.809,-29.746 -64.735,-64.883 0.094,-36.179 29.531,-64.777 64.824,-64.519 34.43,-0.149 64.602,27.402 64.586,64.742 -0.011,36.047 -28.492,64.66 -64.652,64.66 -0.004,0 -0.016,0 -0.023,0" /><g
         id="g112"><g
           clip-path="url(#clipPath118)"
           id="g114"><g
             clip-path="url(#clipPath124)"
             id="g120"><path
               id="path126"
               style="fill:#53a6ec;fill-opacity:1;fill-rule:nonzero;stroke:none"
               d="M 310.68,289.563 H 560.391 V 539.27 H 310.68 Z" /></g></g></g><path
         id="path128"
         style="fill:#53a6ec;fill-opacity:1;fill-rule:evenodd;stroke:none"
         d="m 370.824,67.3789 c 0.067,-35.8437 28.379,-63.58593 62.395,-64.75781 36.277,-1.25 67.054,27.20701 67.015,64.71871 -0.039,36.2262 -28.57,64.0702 -63.586,64.6372 -0.363,0 -0.734,0.007 -1.101,0.007 -36.484,0 -64.649,-29.336 -64.723,-64.6051" /><g
         id="g130"><g
           clip-path="url(#clipPath136)"
           id="g132"><path
             id="path138"
             style="fill:#53a6ec;fill-opacity:1;fill-rule:nonzero;stroke:none"
             d="M 310.676,0 H 560.387 V 192.133 H 310.676 Z" /></g></g><path
         id="path140"
         style="fill:#53a6ec;fill-opacity:1;fill-rule:evenodd;stroke:none"
         d="m 1002.89,418.172 c 0,-33.652 27.29,-60.938 60.95,-60.938 33.65,0 60.94,27.286 60.94,60.938 0,33.656 -27.29,60.949 -60.94,60.949 -33.66,0 -60.95,-27.293 -60.95,-60.949" /><g
         id="g142"><g
           clip-path="url(#clipPath148)"
           id="g144"><g
             clip-path="url(#clipPath154)"
             id="g150"><path
               id="path156"
               style="fill:#53a6ec;fill-opacity:1;fill-rule:nonzero;stroke:none"
               d="m 942.734,297.086 h 242.195 V 539.27 H 942.734 Z" /></g></g></g><path
         id="path158"
         style="fill:#53a6ec;fill-opacity:1;fill-rule:evenodd;stroke:none"
         d="m 1266.94,304.656 c -4.92,19.977 -18.64,33.442 -37.78,37.035 -22.59,4.231 -66.43,-0.015 -66.43,-0.015 l -3.56,-0.442 c -0.94,-0.101 -1.76,-0.742 -1.53,-1.597 5.65,-21.996 6.96,-68.813 6.96,-113.082 0,0 -0.04,-130.1839 -0.01,-177.1487 l -0.01,-13.0665 c -0.01,-1.3945 0.04,-2.789 0.11,-4.1796 0.66,-12.1485 4.81,-23.51567 15.8,-26.54301 0.13,-0.02735 0.26,-0.04688 0.4,-0.04688 l 61.32,0.04688 h 39.3 c 1,0 1.66,1.02734 1.29,1.97265 -1.75,4.36716 -2.57,10.65626 -2.72,17.92186 v 7.3828 c 0.03,4.9883 0.02,10.6328 0,15.7422 l 0.01,147.0583 c 0,9.2 1.37,18.235 3.48,23 l 0.1,0.227 0.08,0.23 c 2.87,8.008 14.63,34.157 45.86,34.157 30.17,0 45.47,-21.883 45.47,-65.036 0,0 -0.08,-114.9996 -0.12,-145.0269 -0.01,-3.9063 -0.02,-6.3789 -0.02,-6.9648 l 0.14,-4.5586 c 0.74,-11.9727 4.92,-23.09379 15.77,-26.07426 0.13,-0.03906 0.27,-0.0586 0.41,-0.0586 h 100.71 c 1,0 1.65,1.01563 1.27,1.95313 -1.68,4.19923 -2.49,10.19533 -2.69,17.12893 v 0.0586 l 0.01,176.3595 c 0,92.75 -46.56,148.133 -124.53,148.133 -45.4,0 -79.5,-21.489 -99.09,-44.567" /><g
         id="g160"><g
           clip-path="url(#clipPath166)"
           id="g162"><path
             id="path168"
             style="fill:#53a6ec;fill-opacity:1;fill-rule:nonzero;stroke:none"
             d="m 1097.44,0 h 456.07 v 409.375 h -456.07 z" /></g></g><path
         id="path170"
         style="fill:#53a6ec;fill-opacity:1;fill-rule:evenodd;stroke:none"
         d="m 1006.19,336.715 c 0,0 -0.07,-263.4416 -0.12,-293.4689 0,-3.9063 -0.01,-6.3789 -0.02,-6.9648 l 0.14,-4.5586 c 0.74,-11.9727 4.92,-23.09379 15.77,-26.07426 0.14,-0.03906 0.28,-0.0586 0.4,-0.0586 h 100.73 c 1,0 1.66,1.01563 1.28,1.95313 -1.68,4.19923 -2.5,10.19533 -2.7,17.12893 V 336.715 h -115.48" /><g
         id="g172"><g
           clip-path="url(#clipPath178)"
           id="g174"><path
             id="path180"
             style="fill:#53a6ec;fill-opacity:1;fill-rule:nonzero;stroke:none"
             d="m 945.906,0 h 238.723 V 396.867 H 945.906 Z" /></g></g><path
         id="path182"
         style="fill:#53a6ec;fill-opacity:1;fill-rule:evenodd;stroke:none"
         d="m 1611.56,334.895 c -20.93,-9.774 -39.29,-22.883 -54.59,-38.95 -15.29,-16.078 -27.31,-34.957 -35.74,-56.117 -3.79,-9.492 -6.19,-17.219 -8.27,-26.621 -0.06,-0.203 -0.13,-0.488 -0.2,-0.801 l -0.02,-0.105 c -1.14,-3.988 -7.34,-28.391 -1.71,-67.754 l -0.26,-0.102 1.54,-7.312 c 2.33,-11.035 5.74,-21.699 10.14,-31.719 9.2,-20.957 21.92,-39.5312 37.77,-55.1952 15.88,-15.6954 34.47,-28.1055 55.24,-36.9141 20.78,-8.82814 43.26,-13.30079375 66.81,-13.30079375 32.42,0 62.15,8.75781375 88.37,26.05469375 1.75,1.1406 3.47,2.332 5.12,3.5156 7.45,5.1055 14.7,11.0156 21.53,17.5391 5.71,5.457 11.18,11.3555 16.24,17.5469 10.11,12.3945 18.96,26.7695 26.28,42.7458 l 5.88,12.86 -51.5,0.019 c -8.29,-0.008 -33.3,-0.019 -37.12,-0.019 -16.3,0 -22.6,-4.668 -28.59,-10.301 l -1.01,-0.957 c -0.2,-0.215 -0.48,-0.481 -0.75,-0.762 l -0.57,-0.558 c -4.27,-4.305 -6.34,-5.985 -11.68,-9.4614 -7.91,-5.168 -18.75,-7.7852 -32.2,-7.7852 -17.56,0 -33.03,4.9609 -46.01,14.7466 -11.36,8.554 -18.88,20.429 -22.41,35.343 l 238.22,0.039 0.57,8.477 c 0.31,4.668 0.39,9.316 0.4,13.906 v 1.016 c -0.01,2.16 -0.02,4.304 -0.04,6.426 -0.02,2.277 -0.04,4.539 -0.04,6.796 0,13.817 -2.34,28.524 -2.44,29.141 l -0.03,0.195 c -2.16,11.719 -5.45,23.203 -9.79,34.145 -8.59,21.699 -20.71,40.875 -36.03,57.008 -15.31,16.082 -33.82,28.922 -55,38.14 -21.21,9.223 -44.47,13.899 -69.13,13.899 -24.73,0 -47.93,-4.989 -68.98,-14.824 m 7.91,-110.801 c 2.6,5.719 6.59,11.301 11.87,16.582 5.27,5.269 12.09,9.738 20.26,13.273 8.1,3.531 18.03,5.317 29.51,5.317 11.47,0 21.4,-1.793 29.53,-5.321 8.17,-3.547 14.98,-8.004 20.23,-13.254 5.28,-5.293 9.28,-10.875 11.87,-16.597 1.52,-3.309 2.77,-6.383 3.77,-9.188 H 1615.7 c 1,2.805 2.27,5.879 3.77,9.188" /><g
         id="g184"><g
           clip-path="url(#clipPath190)"
           id="g186"><g
             clip-path="url(#clipPath196)"
             id="g192"><path
               id="path198"
               style="fill:#53a6ec;fill-opacity:1;fill-rule:nonzero;stroke:none"
               d="m 1448.54,0 h 464.641 V 409.871 H 1448.54 Z" /></g></g></g><path
         id="path200"
         style="fill:#53a6ec;fill-opacity:1;fill-rule:evenodd;stroke:none"
         d="M 848.176,476.945 V 224.027 L 686.539,445.125 c -14.613,20 -37.902,31.82 -62.676,31.82 H 555.629 V 5.58984 h 115.25 V 268.656 L 841.992,37.0938 C 856.637,17.2773 879.805,5.58984 904.438,5.58984 H 963.43 V 476.945 H 848.176" /><g
         id="g202"><g
           clip-path="url(#clipPath208)"
           id="g204"><path
             id="path210"
             style="fill:#53a6ec;fill-opacity:1;fill-rule:nonzero;stroke:none"
             d="m 495.48,0 h 528.09 V 537.102 H 495.48 Z" /></g></g></g></g></svg>
