<?xml version="1.0" encoding="utf-8"?>
<!-- Generator: Adobe Illustrator 22.1.0, SVG Export Plug-In . SVG Version: 6.00 Build 0)  -->
<svg version="1.1" id="Layer_1" xmlns="http://www.w3.org/2000/svg" xmlns:xlink="http://www.w3.org/1999/xlink" x="0px" y="0px"
	 viewBox="0 0 848.1 207.2" style="enable-background:new 0 0 848.1 207.2;" xml:space="preserve">
<style type="text/css">
	.st0{fill:#FFFFFF;}
	.st1{fill:#24384B;}
	.st2{fill:#00B29B;}
	.st3{fill:#006ED5;}
	.st4{fill:#0C3B67;}
	.st5{fill:#019A86;}
	.st6{fill:#82B8EA;}
	.st7{fill:#67A4E2;}
	.st8{fill:#00BF9B;}
	.st9{fill:#8AE1D1;}
	.st10{fill:#4FD2B9;}
</style>
<g>
	<ellipse class="st0" cx="102.9" cy="102.2" rx="67" ry="68"/>
	<path class="st1" d="M103.5,31.8c-28.6,0-54.4,17.5-65.3,44.3s-4.9,57.7,15.3,78.2s50.6,26.7,77.1,15.6s43.7-37.3,43.7-66.3
		C174.2,63.9,142.5,31.8,103.5,31.8z M103.5,167.1c-25.3,0-48.1-15.5-57.7-39.2s-4.3-51,13.5-69.1s44.7-23.6,68.1-13.7
		S166,78,166,103.6c0,16.8-6.6,33-18.3,44.9C136,160.4,120.1,167.1,103.5,167.1z"/>
	<g transform="translate(8.314 11.376)">
		<path class="st2" d="M95.1,122.3c-5,5.1-13.1,5.1-18.1,0l-19.3-19.6c-3.3-3.2-4.7-8.1-3.5-12.6s4.7-8.1,9.1-9.3s9.2,0.2,12.4,3.6
			l10.2,10.4l28.5-28.9c3.2-3.3,7.9-4.6,12.3-3.4c4.4,1.2,7.9,4.7,9,9.2c1.2,4.5-0.1,9.2-3.3,12.5L95.1,122.3z"/>
		<path class="st3" d="M86.1,94.8v31.3c-3.4,0-6.6-1.4-9-3.8l-19.3-19.6c-3.3-3.2-4.7-8.1-3.5-12.6c1.2-4.5,4.7-8.1,9.1-9.3
			s9.2,0.2,12.4,3.6L86.1,94.8L86.1,94.8z"/>
		<path class="st4" d="M86.1,94.8L68,113.1l9,9.2c5,5.1,13.1,5.1,18.1,0l9-9.2L86.1,94.8z"/>
		<polygon class="st5" points="86.1,94.8 86.1,94.8 104.1,113.1 105.6,111.6 90.7,90.1 		"/>
	</g>
	<g transform="translate(47.354 7.34)">
		<path class="st1" d="M197.5,112.1c0.2-3-1.1-5.8-3.4-7.6c-2.3-1.8-6.4-3.6-12.4-5.4c-5-1.4-9.8-3.4-14.2-6.1
			c-6.7-4.3-10.1-9.9-10.1-16.8c-0.1-5.9,2.6-11.5,7.3-15c4.9-3.9,11.2-5.9,18.9-5.9c4.7-0.1,9.5,0.9,13.8,2.9
			c3.9,1.8,7.2,4.6,9.5,8.2c2.3,3.5,3.5,7.7,3.5,11.9h-12.8c0.2-3.4-1.1-6.8-3.6-9.1c-2.4-2.2-5.9-3.3-10.4-3.3
			c-4.2,0-7.5,0.9-9.8,2.7c-2.3,1.8-3.6,4.6-3.5,7.6c0,2.8,1.4,5.4,3.8,6.9c2.5,1.8,6.6,3.6,12.4,5.3c4.9,1.3,9.5,3.3,13.9,5.9
			c3.1,1.9,5.8,4.5,7.7,7.6c1.7,3.1,2.5,6.6,2.4,10.1c0.2,5.9-2.5,11.4-7.1,14.9c-4.7,3.7-11.1,5.6-19.3,5.6c-5.1,0.1-10.1-1-14.8-3
			c-4.2-1.8-7.8-4.7-10.4-8.3c-2.5-3.6-3.8-8-3.7-12.4H168c-0.2,3.8,1.3,7.4,4.2,9.9c2.8,2.3,6.8,3.5,11.9,3.5
			c4.5,0,7.8-0.9,10.1-2.8C196.4,117.6,197.6,114.9,197.5,112.1z M252.2,131.5c-0.7-1.7-1.2-3.4-1.4-5.2c-7.6,7.7-19.7,8.3-28,1.4
			c-3.4-3-5.3-7.3-5.2-11.9c0-6,2.2-10.5,6.5-13.7c4.3-3.2,10.6-4.8,18.7-4.8h7.6v-3.7c0.1-2.5-0.7-5-2.4-6.9
			c-1.6-1.8-4-2.6-7.3-2.6c-2.5-0.1-4.9,0.6-6.9,2.1c-1.7,1.3-2.7,3.3-2.7,5.4h-12.4c0-3.1,1.1-6.1,3-8.6c2.1-2.8,5-4.9,8.2-6.3
			c3.6-1.6,7.6-2.3,11.5-2.3c6.4,0,11.6,1.6,15.4,4.9c3.8,3.3,5.8,7.9,5.9,13.9v25.2c-0.2,4.1,0.5,8.2,2.1,12v0.9L252.2,131.5z
			 M238.7,122.5c2.4,0,4.8-0.6,6.9-1.8c2-1.1,3.7-2.8,4.9-4.8v-10.6h-6.7c-4.6,0-8,0.8-10.3,2.4c-2.2,1.5-3.6,4.1-3.5,6.9
			c-0.1,2.2,0.8,4.3,2.4,5.8C234.1,121.8,236.4,122.6,238.7,122.5z M279,131.5V84.9h-8.4v-9.3h8.4v-5.1c0-6.2,1.7-11,5.1-14.4
			s8.1-5.1,14.2-5.1c2.3,0,4.7,0.3,6.9,0.9l-0.3,9.8c-1.6-0.3-3.1-0.4-4.7-0.4c-5.9,0-8.9,3.1-8.9,9.3v5h11.2v9.3h-11.2v46.6H279z
			 M333.5,132.5c-7.8,0-14.2-2.5-19-7.5c-4.9-5-7.3-11.7-7.3-20v-1.5c-0.1-5.2,1-10.3,3.2-14.9c2-4.2,5.1-7.8,8.9-10.2
			c3.8-2.4,8.3-3.7,12.8-3.7c7.5,0,13.3,2.4,17.4,7.3c4.1,4.9,6.1,11.7,6.1,20.6v5.1h-36c0.2,4.1,1.8,8,4.6,10.9
			c2.7,2.7,6.3,4.1,10,4c5.5,0.1,10.6-2.5,13.8-7l6.7,6.4c-2.2,3.3-5.3,6-8.8,7.8C342.1,131.6,337.8,132.5,333.5,132.5z M332.1,84.6
			c-3.1-0.1-6.2,1.2-8.2,3.6c-2.3,2.9-3.7,6.4-4,10.1h23.5v-1c-0.3-4.2-1.4-7.4-3.3-9.5C338,85.6,335.1,84.5,332.1,84.6z M379.6,62
			v13.6h9.7v9.3h-9.7V116c-0.1,1.7,0.3,3.3,1.3,4.6c1.2,1.1,2.8,1.6,4.5,1.4c1.5,0,2.9-0.2,4.3-0.5v9.7c-2.6,0.8-5.4,1.2-8.1,1.2
			c-9.5,0-14.2-5.3-14.2-15.9V84.9h-9.1v-9.3h9.1V62H379.6z M417,113.5l11.2-37.9h13.2l-21.9,64.3c-3.4,9.4-9.1,14.1-17.1,14.1
			c-2,0-4-0.4-5.9-0.9v-9.7l2.3,0.2c2.5,0.2,4.9-0.4,7-1.7c1.8-1.5,3.1-3.5,3.7-5.8l1.8-4.8L392,75.7h13.3L417,113.5z M505.1,107
			c-0.7,8-3.7,14.3-8.7,18.8s-11.8,6.7-20.3,6.7c-5.5,0.1-10.9-1.4-15.6-4.3c-4.6-2.9-8.2-7.1-10.4-12.1c-2.5-5.7-3.8-11.9-3.8-18.2
			v-7c-0.1-6.4,1.1-12.8,3.7-18.7c2.3-5.1,6-9.5,10.6-12.5c4.8-3,10.4-4.5,16-4.4c8.2,0,14.7,2.2,19.7,6.7c5,4.5,7.9,10.8,8.7,19.1
			h-12.8c-0.6-5.4-2.2-9.3-4.6-11.7c-2.5-2.4-6.1-3.6-11-3.6c-5.6,0-9.9,2.1-12.9,6.2c-3,4.1-4.5,10.2-4.6,18.2v6.6
			c0,8.1,1.4,14.3,4.3,18.6c2.8,4.2,7.6,6.7,12.6,6.4c5.1,0,8.8-1.2,11.4-3.5c2.5-2.3,4.2-6.1,4.8-11.5L505.1,107z M547.7,126
			c-3.6,4.3-8.8,6.5-15.5,6.5c-6,0-10.5-1.8-13.6-5.3c-3.1-3.5-4.6-8.7-4.6-15.4V75.6h12.4v36c0,7,2.9,10.6,8.7,10.6
			c6,0,10-2.2,12.2-6.6v-40h12.4v55.9H548L547.7,126z"/>
		<polygon class="st1" points="584.3,131.5 571.9,131.5 571.9,52.2 584.3,52.2 		"/>
		<path class="st1" d="M612.2,62v13.6h9.7v9.3h-9.7V116c-0.1,1.7,0.3,3.3,1.3,4.6c1.2,1.1,2.8,1.6,4.5,1.4c1.5,0,2.9-0.2,4.3-0.5
			v9.7c-2.6,0.8-5.4,1.2-8.1,1.2c-9.5,0-14.2-5.3-14.2-15.9V84.9h-9.1v-9.3h9.1V62H612.2z M663.6,126c-3.6,4.3-8.8,6.5-15.5,6.5
			c-6,0-10.5-1.8-13.6-5.3c-3.1-3.5-4.6-8.7-4.6-15.4V75.6h12.4v36c0,7,2.9,10.6,8.7,10.6c6,0,10-2.2,12.2-6.6v-40h12.4v55.9h-11.6
			L663.6,126z M715.9,87.1c-1.7-0.3-3.4-0.4-5-0.4c-5.7,0-9.5,2.2-11.4,6.6v38.2h-12.4V75.6h11.8l0.3,6.3c2.5-4.6,7.3-7.4,12.4-7.3
			c1.5,0,3,0.2,4.4,0.7L715.9,87.1z M745.9,132.5c-7.8,0-14.2-2.5-19-7.5c-4.9-5-7.3-11.7-7.3-20v-1.5c-0.1-5.2,1-10.3,3.2-14.9
			c2-4.2,5.1-7.8,8.9-10.2c3.8-2.4,8.3-3.7,12.8-3.7c7.5,0,13.3,2.4,17.4,7.3c4.1,4.9,6.1,11.7,6.1,20.6v5.1h-36
			c0.2,4.1,1.8,8,4.6,10.9c2.7,2.7,6.3,4.1,10,4c5.5,0.1,10.6-2.5,13.8-7l6.7,6.4c-2.2,3.3-5.3,6-8.8,7.8
			C754.5,131.6,750.2,132.5,745.9,132.5z M744.5,84.6c-3.1-0.1-6.2,1.2-8.2,3.6c-2.3,2.9-3.7,6.4-4,10.1h23.5v-1
			c-0.3-4.2-1.4-7.4-3.3-9.5C750.4,85.6,747.5,84.5,744.5,84.6z"/>
	</g>
	<ellipse class="st0" cx="102.9" cy="102.2" rx="67" ry="68"/>
	<path class="st1" d="M103.5,31.8c-28.6,0-54.4,17.5-65.3,44.3s-4.9,57.7,15.3,78.2s50.6,26.7,77.1,15.6s43.7-37.3,43.7-66.3
		C174.2,63.9,142.5,31.8,103.5,31.8z M103.5,167.1c-25.3,0-48.1-15.5-57.7-39.2s-4.3-51,13.5-69.1s44.7-23.6,68.1-13.7
		S166,78,166,103.6c0,16.8-6.6,33-18.3,44.9C136,160.4,120.1,167.1,103.5,167.1z"/>
	<g transform="translate(8.314 11.376)">
		<path class="st2" d="M95.1,122.3c-5,5.1-13.1,5.1-18.1,0l-19.3-19.6c-3.3-3.2-4.7-8.1-3.5-12.6s4.7-8.1,9.1-9.3s9.2,0.2,12.4,3.6
			l10.2,10.4l28.5-28.9c3.2-3.3,7.9-4.6,12.3-3.4c4.4,1.2,7.9,4.7,9,9.2c1.2,4.5-0.1,9.2-3.3,12.5L95.1,122.3z"/>
		<path class="st3" d="M86.1,94.8v31.3c-3.4,0-6.6-1.4-9-3.8l-19.3-19.6c-3.3-3.2-4.7-8.1-3.5-12.6c1.2-4.5,4.7-8.1,9.1-9.3
			s9.2,0.2,12.4,3.6L86.1,94.8L86.1,94.8z"/>
		<path class="st4" d="M86.1,94.8L68,113.1l9,9.2c5,5.1,13.1,5.1,18.1,0l9-9.2L86.1,94.8z"/>
		<polygon class="st5" points="86.1,94.8 86.1,94.8 104.1,113.1 105.6,111.6 90.7,90.1 		"/>
	</g>
	<g transform="translate(47.354 7.34)">
		<path class="st1" d="M197.5,112.1c0.2-3-1.1-5.8-3.4-7.6c-2.3-1.8-6.4-3.6-12.4-5.4c-5-1.4-9.8-3.4-14.2-6.1
			c-6.7-4.3-10.1-9.9-10.1-16.8c-0.1-5.9,2.6-11.5,7.3-15c4.9-3.9,11.2-5.9,18.9-5.9c4.7-0.1,9.5,0.9,13.8,2.9
			c3.9,1.8,7.2,4.6,9.5,8.2c2.3,3.5,3.5,7.7,3.5,11.9h-12.8c0.2-3.4-1.1-6.8-3.6-9.1c-2.4-2.2-5.9-3.3-10.4-3.3
			c-4.2,0-7.5,0.9-9.8,2.7c-2.3,1.8-3.6,4.6-3.5,7.6c0,2.8,1.4,5.4,3.8,6.9c2.5,1.8,6.6,3.6,12.4,5.3c4.9,1.3,9.5,3.3,13.9,5.9
			c3.1,1.9,5.8,4.5,7.7,7.6c1.7,3.1,2.5,6.6,2.4,10.1c0.2,5.9-2.5,11.4-7.1,14.9c-4.7,3.7-11.1,5.6-19.3,5.6c-5.1,0.1-10.1-1-14.8-3
			c-4.2-1.8-7.8-4.7-10.4-8.3c-2.5-3.6-3.8-8-3.7-12.4H168c-0.2,3.8,1.3,7.4,4.2,9.9c2.8,2.3,6.8,3.5,11.9,3.5
			c4.5,0,7.8-0.9,10.1-2.8C196.4,117.6,197.6,114.9,197.5,112.1z M252.2,131.5c-0.7-1.7-1.2-3.4-1.4-5.2c-7.6,7.7-19.7,8.3-28,1.4
			c-3.4-3-5.3-7.3-5.2-11.9c0-6,2.2-10.5,6.5-13.7c4.3-3.2,10.6-4.8,18.7-4.8h7.6v-3.7c0.1-2.5-0.7-5-2.4-6.9
			c-1.6-1.8-4-2.6-7.3-2.6c-2.5-0.1-4.9,0.6-6.9,2.1c-1.7,1.3-2.7,3.3-2.7,5.4h-12.4c0-3.1,1.1-6.1,3-8.6c2.1-2.8,5-4.9,8.2-6.3
			c3.6-1.6,7.6-2.3,11.5-2.3c6.4,0,11.6,1.6,15.4,4.9c3.8,3.3,5.8,7.9,5.9,13.9v25.2c-0.2,4.1,0.5,8.2,2.1,12v0.9L252.2,131.5z
			 M238.7,122.5c2.4,0,4.8-0.6,6.9-1.8c2-1.1,3.7-2.8,4.9-4.8v-10.6h-6.7c-4.6,0-8,0.8-10.3,2.4c-2.2,1.5-3.6,4.1-3.5,6.9
			c-0.1,2.2,0.8,4.3,2.4,5.8C234.1,121.8,236.4,122.6,238.7,122.5z M279,131.5V84.9h-8.4v-9.3h8.4v-5.1c0-6.2,1.7-11,5.1-14.4
			s8.1-5.1,14.2-5.1c2.3,0,4.7,0.3,6.9,0.9l-0.3,9.8c-1.6-0.3-3.1-0.4-4.7-0.4c-5.9,0-8.9,3.1-8.9,9.3v5h11.2v9.3h-11.2v46.6H279z
			 M333.5,132.5c-7.8,0-14.2-2.5-19-7.5c-4.9-5-7.3-11.7-7.3-20v-1.5c-0.1-5.2,1-10.3,3.2-14.9c2-4.2,5.1-7.8,8.9-10.2
			c3.8-2.4,8.3-3.7,12.8-3.7c7.5,0,13.3,2.4,17.4,7.3c4.1,4.9,6.1,11.7,6.1,20.6v5.1h-36c0.2,4.1,1.8,8,4.6,10.9
			c2.7,2.7,6.3,4.1,10,4c5.5,0.1,10.6-2.5,13.8-7l6.7,6.4c-2.2,3.3-5.3,6-8.8,7.8C342.1,131.6,337.8,132.5,333.5,132.5z M332.1,84.6
			c-3.1-0.1-6.2,1.2-8.2,3.6c-2.3,2.9-3.7,6.4-4,10.1h23.5v-1c-0.3-4.2-1.4-7.4-3.3-9.5C338,85.6,335.1,84.5,332.1,84.6z M379.6,62
			v13.6h9.7v9.3h-9.7V116c-0.1,1.7,0.3,3.3,1.3,4.6c1.2,1.1,2.8,1.6,4.5,1.4c1.5,0,2.9-0.2,4.3-0.5v9.7c-2.6,0.8-5.4,1.2-8.1,1.2
			c-9.5,0-14.2-5.3-14.2-15.9V84.9h-9.1v-9.3h9.1V62H379.6z M417,113.5l11.2-37.9h13.2l-21.9,64.3c-3.4,9.4-9.1,14.1-17.1,14.1
			c-2,0-4-0.4-5.9-0.9v-9.7l2.3,0.2c2.5,0.2,4.9-0.4,7-1.7c1.8-1.5,3.1-3.5,3.7-5.8l1.8-4.8L392,75.7h13.3L417,113.5z M505.1,107
			c-0.7,8-3.7,14.3-8.7,18.8s-11.8,6.7-20.3,6.7c-5.5,0.1-10.9-1.4-15.6-4.3c-4.6-2.9-8.2-7.1-10.4-12.1c-2.5-5.7-3.8-11.9-3.8-18.2
			v-7c-0.1-6.4,1.1-12.8,3.7-18.7c2.3-5.1,6-9.5,10.6-12.5c4.8-3,10.4-4.5,16-4.4c8.2,0,14.7,2.2,19.7,6.7c5,4.5,7.9,10.8,8.7,19.1
			h-12.8c-0.6-5.4-2.2-9.3-4.6-11.7c-2.5-2.4-6.1-3.6-11-3.6c-5.6,0-9.9,2.1-12.9,6.2c-3,4.1-4.5,10.2-4.6,18.2v6.6
			c0,8.1,1.4,14.3,4.3,18.6c2.8,4.2,7.6,6.7,12.6,6.4c5.1,0,8.8-1.2,11.4-3.5c2.5-2.3,4.2-6.1,4.8-11.5L505.1,107z M547.7,126
			c-3.6,4.3-8.8,6.5-15.5,6.5c-6,0-10.5-1.8-13.6-5.3c-3.1-3.5-4.6-8.7-4.6-15.4V75.6h12.4v36c0,7,2.9,10.6,8.7,10.6
			c6,0,10-2.2,12.2-6.6v-40h12.4v55.9H548L547.7,126z"/>
		<polygon class="st1" points="584.3,131.5 571.9,131.5 571.9,52.2 584.3,52.2 		"/>
		<path class="st1" d="M612.2,62v13.6h9.7v9.3h-9.7V116c-0.1,1.7,0.3,3.3,1.3,4.6c1.2,1.1,2.8,1.6,4.5,1.4c1.5,0,2.9-0.2,4.3-0.5
			v9.7c-2.6,0.8-5.4,1.2-8.1,1.2c-9.5,0-14.2-5.3-14.2-15.9V84.9h-9.1v-9.3h9.1V62H612.2z M663.6,126c-3.6,4.3-8.8,6.5-15.5,6.5
			c-6,0-10.5-1.8-13.6-5.3c-3.1-3.5-4.6-8.7-4.6-15.4V75.6h12.4v36c0,7,2.9,10.6,8.7,10.6c6,0,10-2.2,12.2-6.6v-40h12.4v55.9h-11.6
			L663.6,126z M715.9,87.1c-1.7-0.3-3.4-0.4-5-0.4c-5.7,0-9.5,2.2-11.4,6.6v38.2h-12.4V75.6h11.8l0.3,6.3c2.5-4.6,7.3-7.4,12.4-7.3
			c1.5,0,3,0.2,4.4,0.7L715.9,87.1z M745.9,132.5c-7.8,0-14.2-2.5-19-7.5c-4.9-5-7.3-11.7-7.3-20v-1.5c-0.1-5.2,1-10.3,3.2-14.9
			c2-4.2,5.1-7.8,8.9-10.2c3.8-2.4,8.3-3.7,12.8-3.7c7.5,0,13.3,2.4,17.4,7.3c4.1,4.9,6.1,11.7,6.1,20.6v5.1h-36
			c0.2,4.1,1.8,8,4.6,10.9c2.7,2.7,6.3,4.1,10,4c5.5,0.1,10.6-2.5,13.8-7l6.7,6.4c-2.2,3.3-5.3,6-8.8,7.8
			C754.5,131.6,750.2,132.5,745.9,132.5z M744.5,84.6c-3.1-0.1-6.2,1.2-8.2,3.6c-2.3,2.9-3.7,6.4-4,10.1h23.5v-1
			c-0.3-4.2-1.4-7.4-3.3-9.5C750.4,85.6,747.5,84.5,744.5,84.6z"/>
	</g>
</g>
</svg>
